HIERARCHY
ROOT newVegas:Hips
{
	OFFSET 0.000000 96.479958 0.000000
	CHANNELS 6 Xposition Yposition Zposition Xrotation Yrotation Zrotation
	JOINT newVegas:Pelvis
	{
		OFFSET 0.000000 0.000000 0.000000
		CHANNELS 3 Xrotation Yrotation Zrotation
		JOINT newVegas:LeftUpLeg
		{
			OFFSET 18.735201 -5.666702 -4.541200
			CHANNELS 3 Xrotation Yrotation Zrotation
			JOINT newVegas:LeftLeg
			{
				OFFSET -0.021200 -31.938179 0.493100
				CHANNELS 3 Xrotation Yrotation Zrotation
				JOINT newVegas:LeftFoot
				{
					OFFSET 0.021200 -31.938179 -4.336299
					CHANNELS 3 Xrotation Yrotation Zrotation
					JOINT newVegas:LeftToeBase
					{
						OFFSET 0.943001 -26.722000 15.023500
						CHANNELS 3 Xrotation Yrotation Zrotation
						End Site
						{
							OFFSET 0.000000 30.670183 0.000000
						}
					}
				}
				JOINT newVegas:Left_PantLeg
				{
					OFFSET 0.663870 -9.044666 -1.108900
					CHANNELS 3 Xrotation Yrotation Zrotation
					End Site
					{
						OFFSET 1.415995 20.635357 0.000000
					}
				}
			}
		}
		JOINT newVegas:RightUpLeg
		{
			OFFSET -18.735201 -5.666702 -4.541200
			CHANNELS 3 Xrotation Yrotation Zrotation
			JOINT newVegas:RightLeg
			{
				OFFSET 0.018946 -31.938133 0.493100
				CHANNELS 3 Xrotation Yrotation Zrotation
				JOINT newVegas:RightFoot
				{
					OFFSET -0.018946 -31.938126 -4.336299
					CHANNELS 3 Xrotation Yrotation Zrotation
					JOINT newVegas:RightToeBase
					{
						OFFSET -0.943001 -26.722004 15.023500
						CHANNELS 3 Xrotation Yrotation Zrotation
						End Site
						{
							OFFSET 0.000000 30.670187 0.000000
						}
					}
				}
				JOINT newVegas:Right_PantLeg
				{
					OFFSET -0.661674 -9.044716 -1.108900
					CHANNELS 3 Xrotation Yrotation Zrotation
					End Site
					{
						OFFSET -1.415958 20.635269 0.000000
					}
				}
			}
		}
	}
	JOINT newVegas:Spine
	{
		OFFSET 0.000000 10.199997 -0.299500
		CHANNELS 3 Xrotation Yrotation Zrotation
		JOINT newVegas:Spine1
		{
			OFFSET 0.000000 11.900002 -1.516600
			CHANNELS 3 Xrotation Yrotation Zrotation
			JOINT newVegas:Spine2
			{
				OFFSET 0.000000 13.600006 -2.842500
				CHANNELS 3 Xrotation Yrotation Zrotation
				JOINT newVegas:Neck
				{
					OFFSET 0.000000 9.624100 -2.890100
					CHANNELS 3 Xrotation Yrotation Zrotation
					JOINT newVegas:Head
					{
						OFFSET 0.000000 14.068802 -1.351900
						CHANNELS 3 Xrotation Yrotation Zrotation
						JOINT newVegas:Hair_Back
						{
							OFFSET 0.000000 3.231903 -17.524799
							CHANNELS 3 Xrotation Yrotation Zrotation
							End Site
							{
								OFFSET 0.000000 19.849884 0.000000
							}
						}
						JOINT newVegas:Hair_Front
						{
							OFFSET 0.000000 31.260406 4.573800
							CHANNELS 3 Xrotation Yrotation Zrotation
							JOINT newVegas:Hair_Front1
							{
								OFFSET 0.000000 2.284103 11.993300
								CHANNELS 3 Xrotation Yrotation Zrotation
								JOINT newVegas:Hair_Front2
								{
									OFFSET 0.000000 2.284103 11.993300
									CHANNELS 3 Xrotation Yrotation Zrotation
									End Site
									{
										OFFSET 0.000000 12.208862 0.000000
									}
								}
							}
						}
						JOINT newVegas:Jowel
						{
							OFFSET 0.000000 -7.458206 6.864100
							CHANNELS 3 Xrotation Yrotation Zrotation
							End Site
							{
								OFFSET 0.000000 19.849884 0.000000
							}
						}
					}
				}
				JOINT newVegas:LeftShoulder
				{
					OFFSET 15.263000 10.923401 -0.547700
					CHANNELS 3 Xrotation Yrotation Zrotation
					JOINT newVegas:LeftArm
					{
						OFFSET 25.438599 -2.830597 -13.032500
						CHANNELS 3 Xrotation Yrotation Zrotation
						JOINT newVegas:LeftForeArm
						{
							OFFSET 29.960503 0.000000 0.000000
							CHANNELS 3 Xrotation Yrotation Zrotation
							JOINT newVegas:LeftHand
							{
								OFFSET 27.849251 0.000000 0.000000
								CHANNELS 3 Xrotation Yrotation Zrotation
								JOINT newVegas:LeftHandThumb1
								{
									OFFSET 4.487587 -3.305161 6.305391
									CHANNELS 3 Xrotation Yrotation Zrotation
									JOINT newVegas:LeftHandThumb2
									{
										OFFSET 5.480453 -3.164139 3.164143
										CHANNELS 3 Xrotation Yrotation Zrotation
										JOINT newVegas:LeftHandThumb3
										{
											OFFSET 5.159721 -2.978973 2.978967
											CHANNELS 3 Xrotation Yrotation Zrotation
											End Site
											{
												OFFSET 2.494507 5.926697 1.738678
											}
										}
									}
								}
								JOINT newVegas:LeftHandIndex1
								{
									OFFSET 18.578728 -0.527832 5.208049
									CHANNELS 3 Xrotation Yrotation Zrotation
									JOINT newVegas:LeftHandIndex2
									{
										OFFSET 3.192009 0.000000 0.000000
										CHANNELS 3 Xrotation Yrotation Zrotation
										JOINT newVegas:LeftHandIndex3
										{
											OFFSET 3.835129 0.000000 0.000000
											CHANNELS 3 Xrotation Yrotation Zrotation
											End Site
											{
												OFFSET -0.034599 3.816971 0.371180
											}
										}
									}
								}
								JOINT newVegas:LeftHandMiddle1
								{
									OFFSET 18.476105 0.000000 0.000000
									CHANNELS 3 Xrotation Yrotation Zrotation
									JOINT newVegas:LeftHandMiddle2
									{
										OFFSET 3.324875 0.000000 0.000000
										CHANNELS 3 Xrotation Yrotation Zrotation
										JOINT newVegas:LeftHandMiddle3
										{
											OFFSET 4.596550 0.000000 0.000000
											CHANNELS 3 Xrotation Yrotation Zrotation
											End Site
											{
												OFFSET 0.057701 4.578827 0.399218
											}
										}
									}
								}
								JOINT newVegas:LeftHandRing1
								{
									OFFSET 17.732719 0.121887 -4.201567
									CHANNELS 3 Xrotation Yrotation Zrotation
									JOINT newVegas:LeftHandRing2
									{
										OFFSET 2.733170 0.000000 0.000000
										CHANNELS 3 Xrotation Yrotation Zrotation
										JOINT newVegas:LeftHandRing3
										{
											OFFSET 3.178268 0.000000 0.000000
											CHANNELS 3 Xrotation Yrotation Zrotation
											End Site
											{
												OFFSET 0.119102 3.170624 0.185394
											}
										}
									}
								}
								JOINT newVegas:LeftHandPinky1
								{
									OFFSET 15.989624 -0.606689 -7.535461
									CHANNELS 3 Xrotation Yrotation Zrotation
									JOINT newVegas:LeftHandPinky2
									{
										OFFSET 2.538986 0.000000 0.000000
										CHANNELS 3 Xrotation Yrotation Zrotation
										JOINT newVegas:LeftHandPinky3
										{
											OFFSET 2.593102 0.000000 0.000000
											CHANNELS 3 Xrotation Yrotation Zrotation
											End Site
											{
												OFFSET -0.150902 2.584198 0.152708
											}
										}
									}
								}
							}
							JOINT newVegas:Left_Sleeve
							{
								OFFSET 0.267448 -0.649796 0.577675
								CHANNELS 3 Xrotation Yrotation Zrotation
								End Site
								{
									OFFSET 0.000000 15.991241 0.000000
								}
							}
							JOINT newVegas:Left_CapeC
							{
								OFFSET 15.715958 -8.608795 -6.935905
								CHANNELS 3 Xrotation Yrotation Zrotation
								JOINT newVegas:Left_CapeC1
								{
									OFFSET 0.000000 -8.688499 0.000000
									CHANNELS 3 Xrotation Yrotation Zrotation
									End Site
									{
										OFFSET 0.000000 8.688499 0.000000
									}
								}
							}
						}
						JOINT newVegas:Left_CapeB
						{
							OFFSET 26.118385 -8.608795 -7.079235
							CHANNELS 3 Xrotation Yrotation Zrotation
							JOINT newVegas:Left_CapeB1
							{
								OFFSET 0.000000 -8.688499 0.000000
								CHANNELS 3 Xrotation Yrotation Zrotation
								End Site
								{
									OFFSET 0.000000 8.688499 0.000000
								}
							}
						}
						JOINT newVegas:Left_CapeA
						{
							OFFSET 5.115639 -8.608795 -10.395809
							CHANNELS 3 Xrotation Yrotation Zrotation
							JOINT newVegas:Left_CapeA1
							{
								OFFSET 0.000000 -8.688499 0.000000
								CHANNELS 3 Xrotation Yrotation Zrotation
								End Site
								{
									OFFSET 0.000000 8.688499 0.000000
								}
							}
						}
					}
				}
				JOINT newVegas:RightShoulder
				{
					OFFSET -15.263000 10.923401 -0.547700
					CHANNELS 3 Xrotation Yrotation Zrotation
					JOINT newVegas:RightArm
					{
						OFFSET -25.438599 -2.830597 -13.032500
						CHANNELS 3 Xrotation Yrotation Zrotation
						JOINT newVegas:RightForeArm
						{
							OFFSET -29.960503 0.000000 0.000000
							CHANNELS 3 Xrotation Yrotation Zrotation
							JOINT newVegas:RightHand
							{
								OFFSET -27.849251 0.000000 0.000000
								CHANNELS 3 Xrotation Yrotation Zrotation
								JOINT newVegas:RightHandThumb1
								{
									OFFSET -4.487587 -3.305161 6.305391
									CHANNELS 3 Xrotation Yrotation Zrotation
									JOINT newVegas:RightHandThumb2
									{
										OFFSET -5.480453 -3.164139 3.164143
										CHANNELS 3 Xrotation Yrotation Zrotation
										JOINT newVegas:RightHandThumb3
										{
											OFFSET -5.159721 -2.978973 2.978967
											CHANNELS 3 Xrotation Yrotation Zrotation
											End Site
											{
												OFFSET -2.494507 5.926697 1.738678
											}
										}
									}
								}
								JOINT newVegas:RightHandIndex1
								{
									OFFSET -18.578728 -0.527832 5.208049
									CHANNELS 3 Xrotation Yrotation Zrotation
									JOINT newVegas:RightHandIndex2
									{
										OFFSET -3.192009 0.000000 0.000000
										CHANNELS 3 Xrotation Yrotation Zrotation
										JOINT newVegas:RightHandIndex3
										{
											OFFSET -3.835129 0.000000 0.000000
											CHANNELS 3 Xrotation Yrotation Zrotation
											End Site
											{
												OFFSET 0.034599 3.816971 0.371180
											}
										}
									}
								}
								JOINT newVegas:RightHandMiddle1
								{
									OFFSET -18.476105 0.000000 0.000000
									CHANNELS 3 Xrotation Yrotation Zrotation
									JOINT newVegas:RightHandMiddle2
									{
										OFFSET -3.324875 0.000000 0.000000
										CHANNELS 3 Xrotation Yrotation Zrotation
										JOINT newVegas:RightHandMiddle3
										{
											OFFSET -4.596550 0.000000 0.000000
											CHANNELS 3 Xrotation Yrotation Zrotation
											End Site
											{
												OFFSET -0.057701 4.578827 0.399218
											}
										}
									}
								}
								JOINT newVegas:RightHandRing1
								{
									OFFSET -17.732719 0.121887 -4.201567
									CHANNELS 3 Xrotation Yrotation Zrotation
									JOINT newVegas:RightHandRing2
									{
										OFFSET -2.733170 0.000000 0.000000
										CHANNELS 3 Xrotation Yrotation Zrotation
										JOINT newVegas:RightHandRing3
										{
											OFFSET -3.178268 0.000000 0.000000
											CHANNELS 3 Xrotation Yrotation Zrotation
											End Site
											{
												OFFSET -0.119102 3.170624 0.185394
											}
										}
									}
								}
								JOINT newVegas:RightHandPinky1
								{
									OFFSET -15.989624 -0.606689 -7.535461
									CHANNELS 3 Xrotation Yrotation Zrotation
									JOINT newVegas:RightHandPinky2
									{
										OFFSET -2.538986 0.000000 0.000000
										CHANNELS 3 Xrotation Yrotation Zrotation
										JOINT newVegas:RightHandPinky3
										{
											OFFSET -2.593102 0.000000 0.000000
											CHANNELS 3 Xrotation Yrotation Zrotation
											End Site
											{
												OFFSET 0.150902 2.584198 0.152708
											}
										}
									}
								}
							}
							JOINT newVegas:Right_CapeC
							{
								OFFSET -15.715958 -8.608795 -6.935905
								CHANNELS 3 Xrotation Yrotation Zrotation
								JOINT newVegas:Right_CapeC1
								{
									OFFSET 0.000000 -8.688499 0.000000
									CHANNELS 3 Xrotation Yrotation Zrotation
									End Site
									{
										OFFSET 0.000000 8.688499 0.000000
									}
								}
							}
							JOINT newVegas:Right_Sleeve
							{
								OFFSET -0.267448 -0.649994 0.577675
								CHANNELS 3 Xrotation Yrotation Zrotation
								End Site
								{
									OFFSET 0.000000 15.991302 0.000000
								}
							}
						}
						JOINT newVegas:Right_CapeA
						{
							OFFSET -5.115540 -8.608795 -10.395824
							CHANNELS 3 Xrotation Yrotation Zrotation
							JOINT newVegas:Right_CapeA1
							{
								OFFSET 0.000000 -8.688499 0.000000
								CHANNELS 3 Xrotation Yrotation Zrotation
								End Site
								{
									OFFSET 0.000000 8.688499 0.000000
								}
							}
						}
						JOINT newVegas:Right_CapeB
						{
							OFFSET -26.118187 -8.608795 -7.079266
							CHANNELS 3 Xrotation Yrotation Zrotation
							JOINT newVegas:Right_CapeB1
							{
								OFFSET 0.000000 -8.688499 0.000000
								CHANNELS 3 Xrotation Yrotation Zrotation
								End Site
								{
									OFFSET 0.000000 8.688499 0.000000
								}
							}
						}
					}
				}
				JOINT newVegas:Left_Collar
				{
					OFFSET 18.625099 8.655502 8.828100
					CHANNELS 3 Xrotation Yrotation Zrotation
					JOINT newVegas:Left_Collar1
					{
						OFFSET 14.783401 10.540405 -1.259500
						CHANNELS 3 Xrotation Yrotation Zrotation
						End Site
						{
							OFFSET 0.000000 18.199875 0.000000
						}
					}
				}
				JOINT newVegas:Collar_Back
				{
					OFFSET 0.000000 15.630707 -20.132601
					CHANNELS 3 Xrotation Yrotation Zrotation
					End Site
					{
						OFFSET 0.000000 22.523010 0.000000
					}
				}
				JOINT newVegas:Left_Peck
				{
					OFFSET 17.239599 -5.132599 25.482599
					CHANNELS 3 Xrotation Yrotation Zrotation
					End Site
					{
						OFFSET 0.000000 22.523010 0.000000
					}
				}
				JOINT newVegas:Right_Peck
				{
					OFFSET -17.239599 -5.132202 25.482599
					CHANNELS 3 Xrotation Yrotation Zrotation
					End Site
					{
						OFFSET 0.000000 22.523010 0.000000
					}
				}
				JOINT newVegas:Right_Collar
				{
					OFFSET -18.625099 8.655792 8.828100
					CHANNELS 3 Xrotation Yrotation Zrotation
					JOINT newVegas:Right_Collar1
					{
						OFFSET -14.783401 10.539993 -1.259500
						CHANNELS 3 Xrotation Yrotation Zrotation
						End Site
						{
							OFFSET 0.000000 18.199631 0.000000
						}
					}
				}
			}
		}
		JOINT newVegas:Belly
		{
			OFFSET 0.000000 -6.540398 9.014299
			CHANNELS 3 Xrotation Yrotation Zrotation
			End Site
			{
				OFFSET 0.000000 11.566666 0.000000
			}
		}
	}
	JOINT newVegas:ElvisFacialAnim_Joint
	{
		OFFSET 1.000000 -95.330101 -8.825800
		CHANNELS 3 Xrotation Yrotation Zrotation
		End Site
		{
			OFFSET 0.000000 35.315800 0.000000
		}
	}
}
MOTION
Frames: 4
Frame Time: 0.016667
0.240844 84.498070 2.944489 -14.105903 4.532476 -0.104806 0.000001 -0.000000 -0.000000 -21.660442 -4.929051 16.758178 61.522246 -1.785243 0.174978 -24.860442 -0.322805 -14.605630 -0.000000 0.000000 0.000000 0.000002 -0.000001 0.000000 -13.958625 -8.105648 -18.417752 59.780766 1.435398 -0.212855 -30.094940 -5.209003 13.131238 0.000000 -0.000002 -0.000000 0.000002 0.000000 -0.000001 20.019139 -0.089954 0.600771 6.967089 -0.338070 0.675294 6.967315 -0.337864 0.674353 -2.448873 -0.257673 -0.077649 -2.448876 -0.257674 -0.077650 0.000001 0.000000 -0.000000 -2.448809 -0.257675 -0.077649 -2.448949 -0.257671 -0.077650 -0.000000 -0.000000 0.000000 0.000001 0.000000 0.000000 3.082218 -9.945118 -6.811322 -13.959278 -7.908219 -60.295291 69.634325 -63.509093 71.597130 17.167885 -2.491233 -13.648306 2.689281 3.159894 6.593332 -0.080966 21.143646 -2.539989 0.000002 -0.000001 -0.000004 -10.621164 2.937283 -19.267728 1.669111 6.188697 -21.755660 -0.000001 -0.000002 -0.000000 -13.823024 9.936972 -22.469203 6.049010 4.246399 -31.221959 0.000000 -0.000001 -0.000000 -10.744669 8.325270 -36.571070 3.038181 0.221616 -39.078705 -0.000002 0.000003 0.000001 -11.942408 9.095573 -39.265453 4.640656 -6.164113 -45.289308 0.000001 0.000000 0.000001 0.000000 0.000001 -0.000001 0.000000 0.000001 -0.000001 -0.000000 0.000001 -0.000001 -0.000001 -0.000001 -0.000001 -0.000000 -0.000001 -0.000001 -0.000001 -0.000001 -0.000001 -0.000001 -0.000001 -0.000001 8.709541 -2.418524 18.823137 -21.494472 12.934334 56.855499 76.344166 65.516991 -70.724587 6.443793 -2.140701 3.545001 2.694443 -3.160176 -6.583867 -0.079192 -21.145989 2.540876 0.000004 0.000002 -0.000004 -10.621215 -2.937088 19.269104 1.668954 -6.188785 21.755271 0.000001 0.000003 0.000001 -13.688473 -10.244158 24.164210 6.044776 -4.250346 31.223342 -0.000000 0.000000 0.000000 -10.744599 -8.325822 36.570011 3.042382 -0.220443 39.078763 0.000001 -0.000003 -0.000001 -11.872848 -9.179271 39.252001 4.640932 6.162630 45.288826 -0.000001 -0.000000 -0.000001 -0.000004 0.000000 0.000002 -0.000004 -0.000001 0.000001 -0.000004 0.000000 0.000001 -0.000001 -0.000001 -0.000002 -0.000000 -0.000001 -0.000002 -0.000001 -0.000001 -0.000002 -0.000000 -0.000001 -0.000002 0.000000 -0.000000 -0.000000 0.000000 -0.000000 -0.000000 0.000000 -0.000000 -0.000000 0.000000 -0.000000 -0.000000 0.000000 -0.000000 -0.000000 0.000000 -0.000000 -0.000000 0.000000 -0.000000 -0.000000 0.000001 0.000000 -0.000000 0.000001 -0.000000 -0.000000 
0.247132 84.493645 2.942570 -14.083113 4.545062 -0.114316 -0.000001 0.000000 -0.000000 -21.710747 -4.920081 16.769866 61.545776 -1.833628 0.174926 -24.863321 -0.310329 -14.576170 0.000000 0.000000 -0.000000 -0.000002 0.000000 -0.000000 -13.979141 -8.113895 -18.414415 59.777126 1.436620 -0.212833 -30.090726 -5.214673 13.134890 0.000000 -0.000002 -0.000000 -0.000000 0.000001 -0.000000 20.019081 -0.090038 0.600225 6.967164 -0.337049 0.675000 6.967388 -0.336797 0.673819 -2.453804 -0.258117 -0.078663 -2.453827 -0.258117 -0.078663 -0.000001 -0.000000 0.000000 -2.453977 -0.258106 -0.078667 -2.453696 -0.258126 -0.078662 -0.000000 0.000000 -0.000000 -0.000001 -0.000000 -0.000000 3.081950 -9.940220 -6.846197 -13.919034 -8.007091 -60.186568 69.508390 -63.495214 71.476154 17.165988 -2.496257 -13.676334 2.740405 3.355877 6.651969 -0.304259 20.508143 -2.520042 0.000002 -0.000001 -0.000004 -10.843765 2.408669 -18.034237 1.583741 5.984719 -20.446047 -0.000000 0.000001 -0.000004 -13.988341 9.479579 -21.637636 5.872533 4.134112 -30.142926 -0.000000 -0.000002 -0.000000 -10.745585 7.991130 -35.808237 2.902345 0.024337 -37.900897 -0.000001 0.000003 0.000000 -11.884759 8.825185 -38.571765 4.536609 -6.270424 -44.699067 -0.000001 -0.000002 -0.000002 -0.000000 0.000001 -0.000000 -0.000000 0.000001 -0.000000 -0.000001 0.000001 -0.000000 0.000000 -0.000001 0.000001 0.000000 -0.000001 -0.000001 0.000000 -0.000001 0.000001 0.000001 -0.000001 0.000001 8.719993 -2.431949 18.863523 -21.419383 13.027292 56.754132 76.284088 65.521554 -70.684344 6.443183 -2.129476 3.550589 2.691615 -3.150273 -6.581371 -0.140281 -20.912600 2.443730 -0.000000 0.000000 -0.000002 -10.723869 -2.678710 18.376250 1.607997 -6.040025 20.834088 -0.000001 0.000004 -0.000000 -13.789851 -9.992679 23.322246 5.930021 -4.112782 30.347695 0.000000 0.000001 -0.000000 -10.804172 -8.106032 35.619505 2.942596 -0.098404 38.315838 0.000000 0.000002 -0.000000 -11.920091 -8.998294 38.400430 4.514691 6.278571 44.542669 0.000000 -0.000000 -0.000001 0.000002 0.000000 -0.000001 0.000002 0.000001 -0.000001 0.000003 0.000000 -0.000001 0.000000 -0.000001 0.000001 0.000001 -0.000001 0.000001 0.000000 -0.000001 0.000001 0.000001 -0.000001 0.000001 0.000000 -0.000000 0.000000 0.000000 -0.000000 0.000000 0.000000 -0.000000 0.000000 0.000000 -0.000000 0.000000 0.000000 -0.000000 0.000000 0.000000 -0.000000 0.000000 0.000000 -0.000000 0.000000 -0.000001 -0.000001 0.000000 -0.000001 0.000000 -0.000000 
0.262452 84.486801 2.939520 -14.048049 4.577386 -0.129057 0.000000 -0.000000 -0.000000 -21.799237 -4.907427 16.784290 61.588868 -1.920326 0.174773 -24.867097 -0.292205 -14.519196 0.000000 0.000000 0.000000 0.000001 0.000000 -0.000001 -14.001855 -8.134763 -18.413307 59.763295 1.437016 -0.212745 -30.082875 -5.227138 13.146708 0.000000 -0.000002 -0.000000 -0.000001 0.000002 0.000000 20.019151 -0.090267 0.598880 6.967765 -0.333986 0.674075 6.967983 -0.333704 0.672075 -2.466888 -0.260153 -0.080415 -2.466889 -0.260151 -0.080416 -0.000000 -0.000000 -0.000000 -2.466890 -0.260151 -0.080416 -2.466890 -0.260152 -0.080416 -0.000001 0.000000 -0.000000 -0.000000 -0.000000 0.000000 3.081508 -9.932727 -6.899785 -13.772139 -8.303075 -59.856595 69.210505 -63.491205 71.193630 17.161976 -2.546378 -13.762093 2.843740 3.755989 6.771122 -0.770447 19.209931 -2.488546 0.000001 -0.000000 -0.000006 -11.271542 1.302781 -15.505445 1.424455 5.551979 -17.730268 -0.000000 -0.000002 0.000002 -14.321378 8.535477 -19.931525 5.513412 3.887906 -27.908925 0.000001 0.000003 -0.000001 -10.734826 7.300039 -34.231781 2.630271 -0.392181 -35.470689 0.000000 0.000001 0.000000 -11.758235 8.260802 -37.125268 4.322551 -6.494812 -43.471917 -0.000001 0.000000 -0.000000 0.000001 -0.000001 -0.000000 0.000001 -0.000001 -0.000000 0.000000 -0.000001 -0.000000 0.000000 0.000000 0.000001 0.000000 0.000000 0.000001 0.000000 0.000000 0.000001 0.000001 -0.000000 0.000001 8.739783 -2.465332 18.929302 -21.199618 13.256775 56.475580 76.163986 65.580348 -70.597436 6.440271 -2.094181 3.595611 2.684936 -3.126730 -6.575400 -0.271210 -20.426833 2.250008 -0.000000 -0.000004 -0.000001 -10.925252 -2.140287 16.541883 1.491021 -5.724722 18.914795 -0.000001 0.000000 -0.000001 -13.991205 -9.467905 21.606986 5.700143 -3.821554 28.537073 -0.000000 -0.000002 -0.000001 -10.911726 -7.639108 33.676712 2.742887 0.160236 36.738495 0.000000 0.000002 -0.000000 -12.003667 -8.605904 36.648975 4.261013 6.522167 43.011013 0.000001 0.000005 -0.000000 0.000002 -0.000000 -0.000000 0.000002 -0.000001 0.000000 0.000002 -0.000000 -0.000000 0.000000 0.000001 -0.000002 0.000000 0.000001 -0.000000 0.000000 0.000001 -0.000002 0.000000 0.000001 -0.000000 0.000001 0.000000 -0.000000 0.000001 0.000000 -0.000000 0.000001 0.000000 -0.000000 0.000001 0.000000 -0.000000 0.000001 0.000000 -0.000000 0.000001 0.000000 -0.000000 0.000001 0.000000 -0.000000 0.000000 -0.000000 -0.000000 0.000000 -0.000000 -0.000000 
0.282892 84.485176 2.943066 -14.041754 4.621861 -0.130274 -0.000001 0.000000 -0.000000 -21.841939 -4.913712 16.770787 61.617254 -1.962537 0.174648 -24.870636 -0.292425 -14.479306 -0.000000 -0.000001 -0.000000 -0.000001 -0.000001 -0.000001 -13.975876 -8.164765 -18.429556 59.735994 1.433897 -0.212521 -30.081519 -5.239082 13.169069 0.000000 -0.000000 0.000000 0.000000 0.000002 -0.000000 20.019498 -0.090792 0.596289 6.970448 -0.329655 0.671556 6.970665 -0.329433 0.668393 -2.488356 -0.264561 -0.081361 -2.488341 -0.264560 -0.081361 -0.000001 -0.000000 -0.000000 -2.488276 -0.264561 -0.081360 -2.488423 -0.264559 -0.081361 -0.000001 0.000000 -0.000000 -0.000001 -0.000000 0.000000 3.083197 -9.935516 -6.902657 -13.503002 -8.789846 -59.312366 68.869754 -63.545963 70.887180 17.160119 -2.676767 -13.924303 2.936510 4.117314 6.878270 -1.207030 18.029225 -2.472043 0.000001 -0.000002 -0.000003 -11.627917 0.244281 -13.176306 1.292626 5.132265 -15.152102 -0.000000 0.000001 0.000004 -14.610794 7.654095 -18.356415 5.188259 3.625246 -25.799310 0.000000 0.000005 0.000001 -10.691626 6.650390 -32.754602 2.397537 -0.806218 -33.196232 -0.000001 0.000001 0.000001 -11.617385 7.716427 -35.737725 4.124002 -6.717385 -42.299269 0.000001 0.000002 -0.000001 -0.000001 -0.000001 0.000002 -0.000001 -0.000001 0.000002 -0.000001 -0.000001 0.000002 0.000001 0.000000 0.000001 0.000002 0.000000 0.000001 0.000001 0.000000 0.000001 0.000002 -0.000000 0.000001 8.752992 -2.509401 18.951108 -20.864447 13.561954 56.069296 76.084387 65.725722 -70.530419 6.436110 -2.033733 3.726628 2.676304 -3.096393 -6.567720 -0.405724 -19.962999 2.085457 -0.000001 -0.000000 -0.000001 -11.113377 -1.627045 14.850576 1.387888 -5.417888 17.068576 -0.000002 0.000002 -0.000002 -14.172672 -8.971359 20.058908 5.490059 -3.541207 26.833400 -0.000001 0.000002 -0.000001 -10.985399 -7.177299 31.907748 2.563241 0.413057 35.256122 0.000001 0.000001 0.000001 -12.051312 -8.201164 35.024418 4.032086 6.755010 41.602925 -0.000000 0.000002 0.000001 -0.000001 -0.000001 0.000002 -0.000001 -0.000001 0.000002 -0.000000 -0.000001 0.000001 0.000000 0.000001 0.000000 0.000001 0.000001 0.000002 0.000000 0.000001 0.000000 0.000001 0.000001 0.000002 -0.000002 -0.000000 0.000000 -0.000002 -0.000000 0.000000 -0.000002 -0.000000 0.000000 -0.000002 -0.000000 0.000000 -0.000002 -0.000000 0.000000 -0.000002 -0.000000 0.000000 -0.000002 -0.000000 0.000000 -0.000000 -0.000000 -0.000000 -0.000001 0.000000 -0.000000 
